<mxfile host="65bd71144e" modified="2020-11-13T03:25:38.612Z" agent="5.0 (Windows NT 10.0; Win64; x64) AppleWebKit/537.36 (KHTML, like Gecko) Code/1.51.1 Chrome/83.0.4103.122 Electron/9.3.3 Safari/537.36" etag="XMozGOd0tsyVSxoqECq1" version="13.6.5" pages="2">
    <diagram id="vuWbajgynO5kkoE3s7Jj" name="Page-1">
        <mxGraphModel dx="1638" dy="2293" grid="0" gridSize="10" guides="1" tooltips="1" connect="1" arrows="1" fold="1" page="0" pageScale="1" pageWidth="1920" pageHeight="1200" background="none" math="0" shadow="0">
            <root>
                <mxCell id="0"/>
                <mxCell id="1" parent="0"/>
                <mxCell id="NBGsxMIlaY5nMjjAjVkc-18" value="" style="whiteSpace=wrap;html=1;fontSize=13;strokeColor=#3700CC;fontColor=#ffffff;shadow=1;fillColor=#000000;" parent="1" vertex="1">
                    <mxGeometry x="1770" y="336" width="1256" height="525" as="geometry"/>
                </mxCell>
                <mxCell id="NBGsxMIlaY5nMjjAjVkc-16" value="" style="whiteSpace=wrap;html=1;fontSize=13;strokeColor=#3700CC;fontColor=#ffffff;shadow=1;fillColor=#000000;" parent="1" vertex="1">
                    <mxGeometry x="1774" y="84" width="1256" height="243" as="geometry"/>
                </mxCell>
                <mxCell id="NBGsxMIlaY5nMjjAjVkc-2" style="edgeStyle=orthogonalEdgeStyle;rounded=0;orthogonalLoop=1;jettySize=auto;html=1;" parent="1" source="NBGsxMIlaY5nMjjAjVkc-1" edge="1">
                    <mxGeometry relative="1" as="geometry">
                        <mxPoint x="1997" y="2769.461538461539" as="targetPoint"/>
                        <Array as="points">
                            <mxPoint x="1997" y="1013"/>
                            <mxPoint x="1997" y="1013"/>
                        </Array>
                    </mxGeometry>
                </mxCell>
                <mxCell id="NBGsxMIlaY5nMjjAjVkc-1" value="Angular" style="rounded=0;whiteSpace=wrap;html=1;" parent="1" vertex="1">
                    <mxGeometry x="1939" y="1094" width="120" height="60" as="geometry"/>
                </mxCell>
                <mxCell id="NBGsxMIlaY5nMjjAjVkc-4" style="edgeStyle=orthogonalEdgeStyle;rounded=0;orthogonalLoop=1;jettySize=auto;html=1;" parent="1" source="NBGsxMIlaY5nMjjAjVkc-3" edge="1">
                    <mxGeometry relative="1" as="geometry">
                        <mxPoint x="2684" y="2797" as="targetPoint"/>
                        <Array as="points">
                            <mxPoint x="2684" y="744"/>
                            <mxPoint x="2684" y="744"/>
                        </Array>
                    </mxGeometry>
                </mxCell>
                <mxCell id="NBGsxMIlaY5nMjjAjVkc-3" value="API" style="rounded=0;whiteSpace=wrap;html=1;" parent="1" vertex="1">
                    <mxGeometry x="2622" y="1094" width="120" height="60" as="geometry"/>
                </mxCell>
                <mxCell id="NBGsxMIlaY5nMjjAjVkc-5" value="" style="endArrow=classic;html=1;endSize=19;endFill=0;" parent="1" edge="1">
                    <mxGeometry width="50" height="50" relative="1" as="geometry">
                        <mxPoint x="1968" y="133" as="sourcePoint"/>
                        <mxPoint x="2654" y="141" as="targetPoint"/>
                    </mxGeometry>
                </mxCell>
                <mxCell id="NBGsxMIlaY5nMjjAjVkc-6" value="&lt;font style=&quot;font-size: 14px&quot;&gt;post playerChoise&lt;/font&gt;" style="edgeLabel;html=1;align=center;verticalAlign=middle;resizable=0;points=[];" parent="NBGsxMIlaY5nMjjAjVkc-5" vertex="1" connectable="0">
                    <mxGeometry x="-0.1488" y="2" relative="1" as="geometry">
                        <mxPoint as="offset"/>
                    </mxGeometry>
                </mxCell>
                <mxCell id="NBGsxMIlaY5nMjjAjVkc-13" value="calcule result et creat a cpu choice" style="shape=step;perimeter=stepPerimeter;whiteSpace=wrap;html=1;fixedSize=1;" parent="1" vertex="1">
                    <mxGeometry x="2587" y="156" width="211" height="80" as="geometry"/>
                </mxCell>
                <mxCell id="NBGsxMIlaY5nMjjAjVkc-14" value="" style="endArrow=none;html=1;startArrow=block;startFill=0;endSize=11;startSize=21;" parent="1" edge="1">
                    <mxGeometry width="50" height="50" relative="1" as="geometry">
                        <mxPoint x="1970" y="247" as="sourcePoint"/>
                        <mxPoint x="2656" y="255" as="targetPoint"/>
                    </mxGeometry>
                </mxCell>
                <mxCell id="NBGsxMIlaY5nMjjAjVkc-15" value="send result cpuchoise and player choise " style="edgeLabel;html=1;align=center;verticalAlign=middle;resizable=0;points=[];fontSize=13;" parent="NBGsxMIlaY5nMjjAjVkc-14" vertex="1" connectable="0">
                    <mxGeometry x="-0.1488" y="2" relative="1" as="geometry">
                        <mxPoint as="offset"/>
                    </mxGeometry>
                </mxCell>
                <mxCell id="NBGsxMIlaY5nMjjAjVkc-17" value="1.0" style="text;html=1;align=center;verticalAlign=middle;resizable=0;points=[];autosize=1;fontSize=13;" parent="1" vertex="1">
                    <mxGeometry x="2996" y="91" width="28" height="20" as="geometry"/>
                </mxCell>
                <mxCell id="NBGsxMIlaY5nMjjAjVkc-19" value="" style="endArrow=classic;html=1;endSize=19;endFill=0;" parent="1" edge="1">
                    <mxGeometry width="50" height="50" relative="1" as="geometry">
                        <mxPoint x="1997" y="1716" as="sourcePoint"/>
                        <mxPoint x="2683" y="1724" as="targetPoint"/>
                    </mxGeometry>
                </mxCell>
                <mxCell id="NBGsxMIlaY5nMjjAjVkc-20" value="&lt;font style=&quot;font-size: 27px;&quot;&gt;post playerChoise&lt;/font&gt;" style="edgeLabel;html=1;align=center;verticalAlign=middle;resizable=0;points=[];fontSize=27;" parent="NBGsxMIlaY5nMjjAjVkc-19" vertex="1" connectable="0">
                    <mxGeometry x="-0.1488" y="2" relative="1" as="geometry">
                        <mxPoint as="offset"/>
                    </mxGeometry>
                </mxCell>
                <mxCell id="NBGsxMIlaY5nMjjAjVkc-21" value="&lt;font style=&quot;font-size: 27px&quot;&gt;+ Player Name&lt;/font&gt;" style="edgeLabel;html=1;align=center;verticalAlign=middle;resizable=0;points=[];fontSize=13;" parent="NBGsxMIlaY5nMjjAjVkc-19" vertex="1" connectable="0">
                    <mxGeometry x="0.1458" y="-1" relative="1" as="geometry">
                        <mxPoint x="114.1" y="-3.58" as="offset"/>
                    </mxGeometry>
                </mxCell>
                <mxCell id="NBGsxMIlaY5nMjjAjVkc-22" value="" style="endArrow=none;html=1;startArrow=block;startFill=0;endSize=11;startSize=21;" parent="1" edge="1">
                    <mxGeometry width="50" height="50" relative="1" as="geometry">
                        <mxPoint x="1974" y="453.5" as="sourcePoint"/>
                        <mxPoint x="2660" y="461.5" as="targetPoint"/>
                    </mxGeometry>
                </mxCell>
                <mxCell id="NBGsxMIlaY5nMjjAjVkc-23" value="send result cpuchoise and player choise " style="edgeLabel;html=1;align=center;verticalAlign=middle;resizable=0;points=[];fontSize=13;" parent="NBGsxMIlaY5nMjjAjVkc-22" vertex="1" connectable="0">
                    <mxGeometry x="-0.1488" y="2" relative="1" as="geometry">
                        <mxPoint as="offset"/>
                    </mxGeometry>
                </mxCell>
                <mxCell id="NBGsxMIlaY5nMjjAjVkc-24" value="+ Player Name" style="edgeLabel;html=1;align=center;verticalAlign=middle;resizable=0;points=[];fontSize=13;" parent="1" vertex="1" connectable="0">
                    <mxGeometry x="2438.0016181517167" y="457.5027107738458" as="geometry"/>
                </mxCell>
                <mxCell id="NBGsxMIlaY5nMjjAjVkc-25" value="" style="endArrow=classic;html=1;endSize=19;endFill=0;" parent="1" edge="1">
                    <mxGeometry width="50" height="50" relative="1" as="geometry">
                        <mxPoint x="1969" y="516" as="sourcePoint"/>
                        <mxPoint x="2655" y="524" as="targetPoint"/>
                    </mxGeometry>
                </mxCell>
                <mxCell id="NBGsxMIlaY5nMjjAjVkc-26" value="Get Leader bord" style="edgeLabel;html=1;align=center;verticalAlign=middle;resizable=0;points=[];" parent="NBGsxMIlaY5nMjjAjVkc-25" vertex="1" connectable="0">
                    <mxGeometry x="-0.1488" y="2" relative="1" as="geometry">
                        <mxPoint as="offset"/>
                    </mxGeometry>
                </mxCell>
                <mxCell id="NBGsxMIlaY5nMjjAjVkc-29" value="Create leaderbord with the username win ratio turn players " style="shape=step;perimeter=stepPerimeter;whiteSpace=wrap;html=1;fixedSize=1;" parent="1" vertex="1">
                    <mxGeometry x="2498" y="551" width="506" height="80" as="geometry"/>
                </mxCell>
                <mxCell id="NBGsxMIlaY5nMjjAjVkc-30" value="1.1" style="text;html=1;align=center;verticalAlign=middle;resizable=0;points=[];autosize=1;fontSize=13;" parent="1" vertex="1">
                    <mxGeometry x="2994" y="349" width="28" height="20" as="geometry"/>
                </mxCell>
                <mxCell id="NBGsxMIlaY5nMjjAjVkc-32" value="" style="endArrow=none;html=1;startArrow=block;startFill=0;endSize=11;startSize=21;" parent="1" edge="1">
                    <mxGeometry width="50" height="50" relative="1" as="geometry">
                        <mxPoint x="1968" y="674" as="sourcePoint"/>
                        <mxPoint x="2654" y="682" as="targetPoint"/>
                    </mxGeometry>
                </mxCell>
                <mxCell id="NBGsxMIlaY5nMjjAjVkc-33" value="send leaderborder " style="edgeLabel;html=1;align=center;verticalAlign=middle;resizable=0;points=[];fontSize=13;" parent="NBGsxMIlaY5nMjjAjVkc-32" vertex="1" connectable="0">
                    <mxGeometry x="-0.1488" y="2" relative="1" as="geometry">
                        <mxPoint as="offset"/>
                    </mxGeometry>
                </mxCell>
                <mxCell id="NBGsxMIlaY5nMjjAjVkc-35" value="gameclass" style="swimlane;fontStyle=0;childLayout=stackLayout;horizontal=1;startSize=26;horizontalStack=0;resizeParent=1;resizeParentMax=0;resizeLast=0;collapsible=1;marginBottom=0;align=center;fontSize=14;shadow=1;fillColor=#B3B3B3;" parent="1" vertex="1">
                    <mxGeometry x="2808" y="1769" width="233" height="130" as="geometry"/>
                </mxCell>
                <mxCell id="NBGsxMIlaY5nMjjAjVkc-39" value="PlayerChoise" style="text;strokeColor=none;fillColor=none;spacingLeft=4;spacingRight=4;overflow=hidden;rotatable=0;points=[[0,0.5],[1,0.5]];portConstraint=eastwest;fontSize=12;" parent="NBGsxMIlaY5nMjjAjVkc-35" vertex="1">
                    <mxGeometry y="26" width="233" height="26" as="geometry"/>
                </mxCell>
                <mxCell id="NBGsxMIlaY5nMjjAjVkc-37" value="cpu choice" style="text;strokeColor=none;fillColor=none;spacingLeft=4;spacingRight=4;overflow=hidden;rotatable=0;points=[[0,0.5],[1,0.5]];portConstraint=eastwest;fontSize=12;" parent="NBGsxMIlaY5nMjjAjVkc-35" vertex="1">
                    <mxGeometry y="52" width="233" height="26" as="geometry"/>
                </mxCell>
                <mxCell id="NBGsxMIlaY5nMjjAjVkc-36" value="player name " style="text;strokeColor=none;fillColor=none;spacingLeft=4;spacingRight=4;overflow=hidden;rotatable=0;points=[[0,0.5],[1,0.5]];portConstraint=eastwest;fontSize=12;" parent="NBGsxMIlaY5nMjjAjVkc-35" vertex="1">
                    <mxGeometry y="78" width="233" height="26" as="geometry"/>
                </mxCell>
                <mxCell id="NBGsxMIlaY5nMjjAjVkc-38" value="result&#10;" style="text;strokeColor=none;fillColor=none;spacingLeft=4;spacingRight=4;overflow=hidden;rotatable=0;points=[[0,0.5],[1,0.5]];portConstraint=eastwest;fontSize=12;" parent="NBGsxMIlaY5nMjjAjVkc-35" vertex="1">
                    <mxGeometry y="104" width="233" height="26" as="geometry"/>
                </mxCell>
                <mxCell id="NBGsxMIlaY5nMjjAjVkc-40" value="" style="endArrow=none;html=1;startArrow=block;startFill=0;endSize=11;startSize=21;" parent="1" edge="1">
                    <mxGeometry width="50" height="50" relative="1" as="geometry">
                        <mxPoint x="1996.9999999999995" y="1931" as="sourcePoint"/>
                        <mxPoint x="2683" y="1939" as="targetPoint"/>
                    </mxGeometry>
                </mxCell>
                <mxCell id="NBGsxMIlaY5nMjjAjVkc-41" value="send back the everithing " style="edgeLabel;html=1;align=center;verticalAlign=middle;resizable=0;points=[];fontSize=27;" parent="NBGsxMIlaY5nMjjAjVkc-40" vertex="1" connectable="0">
                    <mxGeometry x="-0.1488" y="2" relative="1" as="geometry">
                        <mxPoint as="offset"/>
                    </mxGeometry>
                </mxCell>
                <mxCell id="NBGsxMIlaY5nMjjAjVkc-42" value="add conter win and game" style="text;html=1;align=center;verticalAlign=middle;resizable=0;points=[];autosize=1;fontSize=27;" parent="1" vertex="1">
                    <mxGeometry x="2733" y="1903" width="313" height="36" as="geometry"/>
                </mxCell>
                <mxCell id="NBGsxMIlaY5nMjjAjVkc-43" value="" style="endArrow=classic;html=1;endSize=23;endFill=0;" parent="1" edge="1">
                    <mxGeometry width="50" height="50" relative="1" as="geometry">
                        <mxPoint x="1996" y="2073" as="sourcePoint"/>
                        <mxPoint x="2682" y="2081" as="targetPoint"/>
                    </mxGeometry>
                </mxCell>
                <mxCell id="NBGsxMIlaY5nMjjAjVkc-44" value="&lt;font style=&quot;font-size: 27px&quot;&gt;Get Leader bord&lt;/font&gt;" style="edgeLabel;html=1;align=center;verticalAlign=middle;resizable=0;points=[];" parent="NBGsxMIlaY5nMjjAjVkc-43" vertex="1" connectable="0">
                    <mxGeometry x="-0.1488" y="2" relative="1" as="geometry">
                        <mxPoint as="offset"/>
                    </mxGeometry>
                </mxCell>
                <mxCell id="NBGsxMIlaY5nMjjAjVkc-56" style="rounded=0;orthogonalLoop=1;jettySize=auto;html=1;startArrow=none;startFill=0;startSize=21;endArrow=classic;endFill=0;endSize=23;fontSize=17;" parent="1" source="NBGsxMIlaY5nMjjAjVkc-45" target="NBGsxMIlaY5nMjjAjVkc-52" edge="1">
                    <mxGeometry relative="1" as="geometry">
                        <Array as="points">
                            <mxPoint x="3311" y="2237"/>
                        </Array>
                    </mxGeometry>
                </mxCell>
                <mxCell id="NBGsxMIlaY5nMjjAjVkc-45" value="Class playerInfo" style="swimlane;fontStyle=0;childLayout=stackLayout;horizontal=1;startSize=26;horizontalStack=0;resizeParent=1;resizeParentMax=0;resizeLast=0;collapsible=1;marginBottom=0;align=center;fontSize=17;shadow=1;fillColor=#B3B3B3;strokeWidth=1;spacing=3;" parent="1" vertex="1">
                    <mxGeometry x="3219" y="1962" width="182" height="210" as="geometry"/>
                </mxCell>
                <mxCell id="NBGsxMIlaY5nMjjAjVkc-46" value="playername " style="text;strokeColor=none;fillColor=none;spacingLeft=4;spacingRight=4;overflow=hidden;rotatable=0;points=[[0,0.5],[1,0.5]];portConstraint=eastwest;fontSize=17;strokeWidth=1;spacing=3;" parent="NBGsxMIlaY5nMjjAjVkc-45" vertex="1">
                    <mxGeometry y="26" width="182" height="26" as="geometry"/>
                </mxCell>
                <mxCell id="NBGsxMIlaY5nMjjAjVkc-47" value="win" style="text;strokeColor=none;fillColor=none;spacingLeft=4;spacingRight=4;overflow=hidden;rotatable=0;points=[[0,0.5],[1,0.5]];portConstraint=eastwest;fontSize=17;strokeWidth=1;spacing=3;" parent="NBGsxMIlaY5nMjjAjVkc-45" vertex="1">
                    <mxGeometry y="52" width="182" height="26" as="geometry"/>
                </mxCell>
                <mxCell id="NBGsxMIlaY5nMjjAjVkc-48" value="numbreGame" style="text;strokeColor=none;fillColor=none;spacingLeft=4;spacingRight=4;overflow=hidden;rotatable=0;points=[[0,0.5],[1,0.5]];portConstraint=eastwest;fontSize=17;strokeWidth=1;spacing=3;" parent="NBGsxMIlaY5nMjjAjVkc-45" vertex="1">
                    <mxGeometry y="78" width="182" height="42" as="geometry"/>
                </mxCell>
                <mxCell id="NBGsxMIlaY5nMjjAjVkc-49" value="winRatio" style="text;strokeColor=none;fillColor=none;spacingLeft=4;spacingRight=4;overflow=hidden;rotatable=0;points=[[0,0.5],[1,0.5]];portConstraint=eastwest;fontSize=17;strokeWidth=1;spacing=3;" parent="NBGsxMIlaY5nMjjAjVkc-45" vertex="1">
                    <mxGeometry y="120" width="182" height="45" as="geometry"/>
                </mxCell>
                <mxCell id="NBGsxMIlaY5nMjjAjVkc-90" value="last 5 game" style="text;strokeColor=none;fillColor=none;spacingLeft=4;spacingRight=4;overflow=hidden;rotatable=0;points=[[0,0.5],[1,0.5]];portConstraint=eastwest;fontSize=17;strokeWidth=1;spacing=3;" parent="NBGsxMIlaY5nMjjAjVkc-45" vertex="1">
                    <mxGeometry y="165" width="182" height="45" as="geometry"/>
                </mxCell>
                <mxCell id="NBGsxMIlaY5nMjjAjVkc-50" value="" style="endArrow=none;html=1;startArrow=block;startFill=0;endSize=11;startSize=21;" parent="1" edge="1">
                    <mxGeometry width="50" height="50" relative="1" as="geometry">
                        <mxPoint x="1994.9999999999995" y="2364" as="sourcePoint"/>
                        <mxPoint x="2681" y="2372" as="targetPoint"/>
                    </mxGeometry>
                </mxCell>
                <mxCell id="NBGsxMIlaY5nMjjAjVkc-51" value="send back the list of player 3max " style="edgeLabel;html=1;align=center;verticalAlign=middle;resizable=0;points=[];fontSize=27;" parent="NBGsxMIlaY5nMjjAjVkc-50" vertex="1" connectable="0">
                    <mxGeometry x="-0.1488" y="2" relative="1" as="geometry">
                        <mxPoint x="42.23" as="offset"/>
                    </mxGeometry>
                </mxCell>
                <mxCell id="NBGsxMIlaY5nMjjAjVkc-58" style="edgeStyle=orthogonalEdgeStyle;rounded=0;orthogonalLoop=1;jettySize=auto;html=1;startArrow=none;startFill=0;startSize=21;endArrow=classic;endFill=0;endSize=23;fontSize=17;" parent="1" source="NBGsxMIlaY5nMjjAjVkc-52" edge="1">
                    <mxGeometry relative="1" as="geometry">
                        <mxPoint x="2683" y="2290" as="targetPoint"/>
                        <Array as="points">
                            <mxPoint x="2683" y="2290"/>
                        </Array>
                    </mxGeometry>
                </mxCell>
                <mxCell id="NBGsxMIlaY5nMjjAjVkc-52" value="leaderbord" style="swimlane;fontStyle=0;childLayout=stackLayout;horizontal=1;startSize=26;horizontalStack=0;resizeParent=1;resizeParentMax=0;resizeLast=0;collapsible=1;marginBottom=0;align=center;fontSize=14;shadow=1;strokeWidth=1;fillColor=#B3B3B3;" parent="1" vertex="1">
                    <mxGeometry x="3230" y="2264" width="160" height="52" as="geometry"/>
                </mxCell>
                <mxCell id="NBGsxMIlaY5nMjjAjVkc-53" value="list of player" style="text;strokeColor=none;fillColor=none;spacingLeft=4;spacingRight=4;overflow=hidden;rotatable=0;points=[[0,0.5],[1,0.5]];portConstraint=eastwest;fontSize=12;" parent="NBGsxMIlaY5nMjjAjVkc-52" vertex="1">
                    <mxGeometry y="26" width="160" height="26" as="geometry"/>
                </mxCell>
                <mxCell id="NBGsxMIlaY5nMjjAjVkc-57" style="edgeStyle=orthogonalEdgeStyle;rounded=0;orthogonalLoop=1;jettySize=auto;html=1;startArrow=none;startFill=0;startSize=21;endArrow=classic;endFill=0;endSize=23;fontSize=17;" parent="1" source="NBGsxMIlaY5nMjjAjVkc-37" target="NBGsxMIlaY5nMjjAjVkc-45" edge="1">
                    <mxGeometry relative="1" as="geometry"/>
                </mxCell>
                <mxCell id="NBGsxMIlaY5nMjjAjVkc-59" style="edgeStyle=orthogonalEdgeStyle;rounded=0;orthogonalLoop=1;jettySize=auto;html=1;startArrow=none;startFill=0;startSize=21;endArrow=classic;endFill=0;endSize=23;fontSize=17;" parent="1" source="NBGsxMIlaY5nMjjAjVkc-39" edge="1">
                    <mxGeometry relative="1" as="geometry">
                        <mxPoint x="2681.0588235294117" y="1834" as="targetPoint"/>
                    </mxGeometry>
                </mxCell>
                <mxCell id="NBGsxMIlaY5nMjjAjVkc-61" style="edgeStyle=none;rounded=0;orthogonalLoop=1;jettySize=auto;html=1;entryX=1;entryY=0;entryDx=0;entryDy=0;startArrow=none;startFill=0;startSize=21;endArrow=classic;endFill=0;endSize=23;fontSize=17;" parent="1" source="NBGsxMIlaY5nMjjAjVkc-60" target="NBGsxMIlaY5nMjjAjVkc-35" edge="1">
                    <mxGeometry relative="1" as="geometry"/>
                </mxCell>
                <mxCell id="NBGsxMIlaY5nMjjAjVkc-60" value="&lt;div&gt;&lt;br&gt;&lt;/div&gt;&lt;div&gt;- create cpu choice(string)&lt;/div&gt;&lt;div&gt;- create the result (string)&lt;br&gt;&lt;/div&gt;&lt;div&gt;-calcul the result of the match(string)&lt;/div&gt;&lt;div&gt;&lt;br&gt;&lt;/div&gt;" style="text;html=1;align=center;verticalAlign=middle;resizable=0;points=[];autosize=1;fontSize=17;" parent="1" vertex="1">
                    <mxGeometry x="3226" y="1620" width="285" height="104" as="geometry"/>
                </mxCell>
                <mxCell id="NBGsxMIlaY5nMjjAjVkc-63" style="edgeStyle=none;rounded=0;orthogonalLoop=1;jettySize=auto;html=1;entryX=1;entryY=0.5;entryDx=0;entryDy=0;startArrow=none;startFill=0;startSize=21;endArrow=classic;endFill=0;endSize=23;fontSize=17;" parent="1" source="NBGsxMIlaY5nMjjAjVkc-62" target="NBGsxMIlaY5nMjjAjVkc-46" edge="1">
                    <mxGeometry relative="1" as="geometry">
                        <Array as="points">
                            <mxPoint x="3443" y="1977"/>
                        </Array>
                    </mxGeometry>
                </mxCell>
                <mxCell id="NBGsxMIlaY5nMjjAjVkc-62" value="&lt;div&gt;-Create the winratio&lt;/div&gt;&lt;div&gt;-add numbre of game with the resul&lt;/div&gt;&lt;div&gt;-add winNumbre with the result &lt;br&gt;&lt;/div&gt;&lt;div&gt;-calcul the Winratio (win / numbregame) *100&lt;/div&gt;&lt;div&gt;stock the la 5 game &lt;br&gt;&lt;/div&gt;" style="text;html=1;align=center;verticalAlign=middle;resizable=0;points=[];autosize=1;fontSize=17;" parent="1" vertex="1">
                    <mxGeometry x="3621" y="1693" width="350" height="104" as="geometry"/>
                </mxCell>
                <mxCell id="NBGsxMIlaY5nMjjAjVkc-64" style="edgeStyle=orthogonalEdgeStyle;rounded=0;orthogonalLoop=1;jettySize=auto;html=1;" parent="1" source="NBGsxMIlaY5nMjjAjVkc-65" edge="1">
                    <mxGeometry relative="1" as="geometry">
                        <mxPoint x="4049.000000000001" y="2817" as="targetPoint"/>
                        <Array as="points">
                            <mxPoint x="4049" y="764"/>
                            <mxPoint x="4049" y="764"/>
                        </Array>
                    </mxGeometry>
                </mxCell>
                <mxCell id="NBGsxMIlaY5nMjjAjVkc-65" value="Database" style="rounded=0;whiteSpace=wrap;html=1;" parent="1" vertex="1">
                    <mxGeometry x="3993" y="1111" width="120" height="60" as="geometry"/>
                </mxCell>
                <mxCell id="NBGsxMIlaY5nMjjAjVkc-66" style="edgeStyle=none;rounded=0;orthogonalLoop=1;jettySize=auto;html=1;startArrow=none;startFill=0;startSize=21;endArrow=classic;endFill=0;endSize=23;fontSize=17;" parent="1" source="NBGsxMIlaY5nMjjAjVkc-49" edge="1">
                    <mxGeometry relative="1" as="geometry">
                        <mxPoint x="4047" y="2104" as="targetPoint"/>
                    </mxGeometry>
                </mxCell>
                <mxCell id="NBGsxMIlaY5nMjjAjVkc-67" value="eacth element are a player(playeur name win winratio last 5 game play)" style="text;html=1;align=center;verticalAlign=middle;resizable=0;points=[];autosize=1;fontSize=17;" parent="1" vertex="1">
                    <mxGeometry x="3050" y="2346" width="548" height="24" as="geometry"/>
                </mxCell>
                <mxCell id="NBGsxMIlaY5nMjjAjVkc-68" value="" style="endArrow=classic;html=1;endSize=19;endFill=0;" parent="1" edge="1">
                    <mxGeometry width="50" height="50" relative="1" as="geometry">
                        <mxPoint x="1996.9999999999995" y="1219.25" as="sourcePoint"/>
                        <mxPoint x="2683" y="1227.25" as="targetPoint"/>
                    </mxGeometry>
                </mxCell>
                <mxCell id="NBGsxMIlaY5nMjjAjVkc-69" value="post the numbre of game want a play " style="edgeLabel;html=1;align=center;verticalAlign=middle;resizable=0;points=[];fontSize=27;" parent="NBGsxMIlaY5nMjjAjVkc-68" vertex="1" connectable="0">
                    <mxGeometry x="-0.1488" y="2" relative="1" as="geometry">
                        <mxPoint as="offset"/>
                    </mxGeometry>
                </mxCell>
                <mxCell id="NBGsxMIlaY5nMjjAjVkc-70" value="&lt;div&gt;&lt;font style=&quot;font-size: 21px&quot;&gt;1,3,5&lt;/font&gt;&lt;/div&gt;" style="edgeLabel;html=1;align=center;verticalAlign=middle;resizable=0;points=[];fontSize=13;" parent="NBGsxMIlaY5nMjjAjVkc-68" vertex="1" connectable="0">
                    <mxGeometry x="0.1458" y="-1" relative="1" as="geometry">
                        <mxPoint x="162.1" y="-2.5799999999999983" as="offset"/>
                    </mxGeometry>
                </mxCell>
                <mxCell id="NBGsxMIlaY5nMjjAjVkc-71" value="" style="endArrow=none;html=1;startArrow=block;startFill=0;endSize=11;startSize=21;" parent="1" edge="1">
                    <mxGeometry width="50" height="50" relative="1" as="geometry">
                        <mxPoint x="2300" y="1191.25" as="sourcePoint"/>
                        <mxPoint x="2307" y="1106.25" as="targetPoint"/>
                    </mxGeometry>
                </mxCell>
                <mxCell id="NBGsxMIlaY5nMjjAjVkc-72" value="Ask confirmation" style="edgeLabel;html=1;align=center;verticalAlign=middle;resizable=0;points=[];fontSize=13;" parent="NBGsxMIlaY5nMjjAjVkc-71" vertex="1" connectable="0">
                    <mxGeometry x="-0.1488" y="2" relative="1" as="geometry">
                        <mxPoint x="9" y="-61.49" as="offset"/>
                    </mxGeometry>
                </mxCell>
                <mxCell id="NBGsxMIlaY5nMjjAjVkc-79" style="edgeStyle=none;rounded=0;orthogonalLoop=1;jettySize=auto;html=1;startArrow=none;startFill=0;startSize=21;endArrow=classic;endFill=0;endSize=23;fontSize=17;" parent="1" source="NBGsxMIlaY5nMjjAjVkc-74" edge="1">
                    <mxGeometry relative="1" as="geometry">
                        <mxPoint x="2679.8823529411766" y="1283.25" as="targetPoint"/>
                    </mxGeometry>
                </mxCell>
                <mxCell id="NBGsxMIlaY5nMjjAjVkc-91" style="edgeStyle=none;rounded=0;orthogonalLoop=1;jettySize=auto;html=1;startArrow=none;startFill=0;startSize=21;endArrow=classic;endFill=0;endSize=23;fontSize=17;" parent="1" source="NBGsxMIlaY5nMjjAjVkc-74" edge="1">
                    <mxGeometry relative="1" as="geometry">
                        <mxPoint x="2897.571428571429" y="1768.571428571429" as="targetPoint"/>
                    </mxGeometry>
                </mxCell>
                <mxCell id="NBGsxMIlaY5nMjjAjVkc-74" value="Menue" style="swimlane;fontStyle=0;childLayout=stackLayout;horizontal=1;startSize=26;horizontalStack=0;resizeParent=1;resizeParentMax=0;resizeLast=0;collapsible=1;marginBottom=0;align=center;fontSize=14;shadow=1;strokeWidth=1;fillColor=#B3B3B3;" parent="1" vertex="1">
                    <mxGeometry x="2827" y="1246" width="160" height="52" as="geometry"/>
                </mxCell>
                <mxCell id="NBGsxMIlaY5nMjjAjVkc-78" value="NumbreChoice" style="text;strokeColor=none;fillColor=none;spacingLeft=4;spacingRight=4;overflow=hidden;rotatable=0;points=[[0,0.5],[1,0.5]];portConstraint=eastwest;fontSize=12;" parent="NBGsxMIlaY5nMjjAjVkc-74" vertex="1">
                    <mxGeometry y="26" width="160" height="26" as="geometry"/>
                </mxCell>
                <mxCell id="NBGsxMIlaY5nMjjAjVkc-80" style="edgeStyle=none;rounded=0;orthogonalLoop=1;jettySize=auto;html=1;startArrow=none;startFill=0;startSize=21;endArrow=classic;endFill=0;endSize=23;fontSize=17;" parent="1" edge="1">
                    <mxGeometry relative="1" as="geometry">
                        <mxPoint x="1992" y="1337.25" as="targetPoint"/>
                        <mxPoint x="2685" y="1337.25" as="sourcePoint"/>
                    </mxGeometry>
                </mxCell>
                <mxCell id="NBGsxMIlaY5nMjjAjVkc-81" value="Display the component for start to play" style="text;html=1;align=center;verticalAlign=middle;resizable=0;points=[];autosize=1;fontSize=17;" parent="1" vertex="1">
                    <mxGeometry x="2196" y="1340.25" width="300" height="24" as="geometry"/>
                </mxCell>
                <mxCell id="NBGsxMIlaY5nMjjAjVkc-83" style="edgeStyle=none;rounded=0;orthogonalLoop=1;jettySize=auto;html=1;startArrow=none;startFill=0;startSize=21;endArrow=classic;endFill=0;endSize=23;fontSize=17;" parent="1" edge="1">
                    <mxGeometry relative="1" as="geometry">
                        <mxPoint x="1998.7058823529414" y="1228.4264705882351" as="targetPoint"/>
                        <mxPoint x="1826.4921923797629" y="1156.25" as="sourcePoint"/>
                    </mxGeometry>
                </mxCell>
                <mxCell id="NBGsxMIlaY5nMjjAjVkc-82" value="&lt;div&gt;Use this numbre made on the client for finish the game&lt;/div&gt;&lt;div&gt;the logic in here&lt;br&gt;&lt;/div&gt;" style="text;html=1;align=center;verticalAlign=middle;resizable=0;points=[];autosize=1;fontSize=17;" parent="1" vertex="1">
                    <mxGeometry x="1467" y="1104" width="422" height="44" as="geometry"/>
                </mxCell>
                <mxCell id="NBGsxMIlaY5nMjjAjVkc-84" value="send info player to the data base " style="text;html=1;align=center;verticalAlign=middle;resizable=0;points=[];autosize=1;fontSize=17;" parent="1" vertex="1">
                    <mxGeometry x="3626" y="2067" width="257" height="24" as="geometry"/>
                </mxCell>
                <mxCell id="NBGsxMIlaY5nMjjAjVkc-85" value="take the 3 best ratio (playerInfo) " style="edgeStyle=none;rounded=0;orthogonalLoop=1;jettySize=auto;html=1;startArrow=none;startFill=0;startSize=21;endArrow=classic;endFill=0;endSize=23;fontSize=17;" parent="1" edge="1">
                    <mxGeometry relative="1" as="geometry">
                        <mxPoint x="4051" y="2232" as="targetPoint"/>
                        <mxPoint x="4046" y="2159.9999999999995" as="sourcePoint"/>
                        <Array as="points">
                            <mxPoint x="4133" y="2160"/>
                            <mxPoint x="4133" y="2232"/>
                        </Array>
                    </mxGeometry>
                </mxCell>
                <mxCell id="NBGsxMIlaY5nMjjAjVkc-88" style="rounded=0;orthogonalLoop=1;jettySize=auto;html=1;entryX=0.996;entryY=0.075;entryDx=0;entryDy=0;startArrow=none;startFill=0;startSize=21;endArrow=classic;endFill=0;endSize=23;fontSize=17;entryPerimeter=0;" parent="1" target="NBGsxMIlaY5nMjjAjVkc-53" edge="1">
                    <mxGeometry relative="1" as="geometry">
                        <mxPoint x="4050" y="2292" as="sourcePoint"/>
                        <mxPoint x="3527" y="2339.0000000000005" as="targetPoint"/>
                    </mxGeometry>
                </mxCell>
                <mxCell id="NBGsxMIlaY5nMjjAjVkc-89" value="sendback the&amp;nbsp; 3 best player " style="edgeLabel;html=1;align=center;verticalAlign=middle;resizable=0;points=[];fontSize=17;" parent="NBGsxMIlaY5nMjjAjVkc-88" vertex="1" connectable="0">
                    <mxGeometry x="-0.0718" y="1" relative="1" as="geometry">
                        <mxPoint as="offset"/>
                    </mxGeometry>
                </mxCell>
                <mxCell id="NBGsxMIlaY5nMjjAjVkc-92" value="need it to know the result of the match" style="text;html=1;align=center;verticalAlign=middle;resizable=0;points=[];autosize=1;fontSize=17;" parent="1" vertex="1">
                    <mxGeometry x="2771" y="1390" width="297" height="24" as="geometry"/>
                </mxCell>
                <mxCell id="NBGsxMIlaY5nMjjAjVkc-93" value="{int}" style="text;html=1;align=center;verticalAlign=middle;resizable=0;points=[];autosize=1;fontSize=17;" parent="1" vertex="1">
                    <mxGeometry x="2503" y="1263" width="39" height="24" as="geometry"/>
                </mxCell>
            </root>
        </mxGraphModel>
    </diagram>
    <diagram id="V299yqbfFm78e_YdeWTj" name="Page-2">
        <mxGraphModel dx="1346" dy="764" grid="0" gridSize="10" guides="1" tooltips="1" connect="1" arrows="1" fold="1" page="0" pageScale="1" pageWidth="1920" pageHeight="1200" math="0" shadow="0">
            <root>
                <mxCell id="yaB2m7KHn7tUfRYsz8CP-0"/>
                <mxCell id="yaB2m7KHn7tUfRYsz8CP-1" style="" parent="yaB2m7KHn7tUfRYsz8CP-0"/>
                <mxCell id="yaB2m7KHn7tUfRYsz8CP-3" value="DataBase" style="text;html=1;align=center;verticalAlign=middle;resizable=0;points=[];autosize=1;fontSize=17;" parent="yaB2m7KHn7tUfRYsz8CP-1" vertex="1">
                    <mxGeometry x="1625" y="33" width="85" height="24" as="geometry"/>
                </mxCell>
                <mxCell id="yaB2m7KHn7tUfRYsz8CP-11" style="edgeStyle=none;rounded=0;orthogonalLoop=1;jettySize=auto;html=1;startArrow=none;startFill=0;startSize=21;endArrow=classic;endFill=0;endSize=23;fontSize=17;" parent="yaB2m7KHn7tUfRYsz8CP-1" source="yaB2m7KHn7tUfRYsz8CP-5" edge="1">
                    <mxGeometry relative="1" as="geometry">
                        <mxPoint x="1222" y="1127" as="targetPoint"/>
                    </mxGeometry>
                </mxCell>
                <mxCell id="yaB2m7KHn7tUfRYsz8CP-5" value="API" style="rounded=0;whiteSpace=wrap;html=1;shadow=1;strokeWidth=1;fontSize=17;fillColor=none;" parent="yaB2m7KHn7tUfRYsz8CP-1" vertex="1">
                    <mxGeometry x="1161" y="5" width="120" height="60" as="geometry"/>
                </mxCell>
                <mxCell id="yaB2m7KHn7tUfRYsz8CP-12" style="edgeStyle=none;rounded=0;orthogonalLoop=1;jettySize=auto;html=1;startArrow=none;startFill=0;startSize=21;endArrow=classic;endFill=0;endSize=23;fontSize=17;" parent="yaB2m7KHn7tUfRYsz8CP-1" source="yaB2m7KHn7tUfRYsz8CP-6" edge="1">
                    <mxGeometry relative="1" as="geometry">
                        <mxPoint x="1664" y="1131" as="targetPoint"/>
                    </mxGeometry>
                </mxCell>
                <mxCell id="yaB2m7KHn7tUfRYsz8CP-6" value="" style="shape=cylinder3;whiteSpace=wrap;html=1;boundedLbl=1;backgroundOutline=1;size=15;shadow=1;strokeWidth=1;fillColor=none;fontSize=17;" parent="yaB2m7KHn7tUfRYsz8CP-1" vertex="1">
                    <mxGeometry x="1634" y="1" width="60" height="80" as="geometry"/>
                </mxCell>
                <mxCell id="yaB2m7KHn7tUfRYsz8CP-10" style="edgeStyle=none;rounded=0;orthogonalLoop=1;jettySize=auto;html=1;startArrow=none;startFill=0;startSize=21;endArrow=classic;endFill=0;endSize=23;fontSize=17;" parent="yaB2m7KHn7tUfRYsz8CP-1" source="yaB2m7KHn7tUfRYsz8CP-7" edge="1">
                    <mxGeometry relative="1" as="geometry">
                        <mxPoint x="644" y="1118" as="targetPoint"/>
                    </mxGeometry>
                </mxCell>
                <mxCell id="yaB2m7KHn7tUfRYsz8CP-7" value="Front End / Angular" style="rounded=0;whiteSpace=wrap;html=1;shadow=1;strokeWidth=1;fontSize=17;fillColor=none;" parent="yaB2m7KHn7tUfRYsz8CP-1" vertex="1">
                    <mxGeometry x="584" y="7" width="120" height="60" as="geometry"/>
                </mxCell>
                <mxCell id="yaB2m7KHn7tUfRYsz8CP-9" style="edgeStyle=none;rounded=0;orthogonalLoop=1;jettySize=auto;html=1;startArrow=none;startFill=0;startSize=21;endArrow=classic;endFill=0;endSize=23;fontSize=17;" parent="yaB2m7KHn7tUfRYsz8CP-1" source="yaB2m7KHn7tUfRYsz8CP-8" edge="1">
                    <mxGeometry relative="1" as="geometry">
                        <mxPoint x="88" y="1131" as="targetPoint"/>
                    </mxGeometry>
                </mxCell>
                <mxCell id="yaB2m7KHn7tUfRYsz8CP-8" value="Actor" style="shape=umlActor;verticalLabelPosition=bottom;verticalAlign=top;html=1;outlineConnect=0;shadow=1;strokeWidth=1;fillColor=none;fontSize=17;" parent="yaB2m7KHn7tUfRYsz8CP-1" vertex="1">
                    <mxGeometry x="79" y="7" width="30" height="60" as="geometry"/>
                </mxCell>
                <mxCell id="yaB2m7KHn7tUfRYsz8CP-13" value="" style="endArrow=classic;html=1;fontSize=17;endSize=21;" parent="yaB2m7KHn7tUfRYsz8CP-1" edge="1">
                    <mxGeometry relative="1" as="geometry">
                        <mxPoint x="94" y="129" as="sourcePoint"/>
                        <mxPoint x="645" y="129" as="targetPoint"/>
                    </mxGeometry>
                </mxCell>
                <mxCell id="yaB2m7KHn7tUfRYsz8CP-14" value="Enter Name And Select Number{1,3,5}" style="edgeLabel;resizable=0;html=1;align=center;verticalAlign=middle;fontSize=16;" parent="yaB2m7KHn7tUfRYsz8CP-13" connectable="0" vertex="1">
                    <mxGeometry relative="1" as="geometry">
                        <mxPoint x="-21" y="-1" as="offset"/>
                    </mxGeometry>
                </mxCell>
                <mxCell id="yaB2m7KHn7tUfRYsz8CP-15" value="" style="endArrow=classic;html=1;fontSize=17;endSize=21;" parent="yaB2m7KHn7tUfRYsz8CP-1" edge="1">
                    <mxGeometry relative="1" as="geometry">
                        <mxPoint x="648" y="140" as="sourcePoint"/>
                        <mxPoint x="1224" y="140" as="targetPoint"/>
                        <Array as="points">
                            <mxPoint x="943" y="140"/>
                        </Array>
                    </mxGeometry>
                </mxCell>
                <mxCell id="yaB2m7KHn7tUfRYsz8CP-16" value="Post{username , numturns}" style="edgeLabel;resizable=0;html=1;align=center;verticalAlign=middle;fontSize=16;" parent="yaB2m7KHn7tUfRYsz8CP-15" connectable="0" vertex="1">
                    <mxGeometry relative="1" as="geometry"/>
                </mxCell>
                <mxCell id="yaB2m7KHn7tUfRYsz8CP-18" value="" style="endArrow=classic;html=1;fontSize=17;endSize=21;" parent="yaB2m7KHn7tUfRYsz8CP-1" edge="1">
                    <mxGeometry relative="1" as="geometry">
                        <mxPoint x="1222" y="147" as="sourcePoint"/>
                        <mxPoint x="1665" y="147" as="targetPoint"/>
                        <Array as="points">
                            <mxPoint x="1517" y="147"/>
                        </Array>
                    </mxGeometry>
                </mxCell>
                <mxCell id="yaB2m7KHn7tUfRYsz8CP-19" value="Check / Insert player name " style="edgeLabel;resizable=0;html=1;align=center;verticalAlign=middle;fontSize=16;" parent="yaB2m7KHn7tUfRYsz8CP-18" connectable="0" vertex="1">
                    <mxGeometry relative="1" as="geometry"/>
                </mxCell>
                <mxCell id="yaB2m7KHn7tUfRYsz8CP-23" value="If error PK player all ready in database " style="shape=callout;whiteSpace=wrap;html=1;perimeter=calloutPerimeter;shadow=1;strokeWidth=1;fillColor=none;fontSize=16;position2=0;" parent="yaB2m7KHn7tUfRYsz8CP-1" vertex="1">
                    <mxGeometry x="1665" y="83" width="120" height="80" as="geometry"/>
                </mxCell>
                <mxCell id="yaB2m7KHn7tUfRYsz8CP-24" value="" style="endArrow=classic;html=1;fontSize=16;startSize=14;endSize=17;startArrow=none;startFill=0;dashed=1;" parent="yaB2m7KHn7tUfRYsz8CP-1" edge="1">
                    <mxGeometry width="50" height="50" relative="1" as="geometry">
                        <mxPoint x="1659" y="190" as="sourcePoint"/>
                        <mxPoint x="1223" y="190" as="targetPoint"/>
                    </mxGeometry>
                </mxCell>
                <mxCell id="yaB2m7KHn7tUfRYsz8CP-25" value="InsertNumbreofturn" style="edgeLabel;html=1;align=center;verticalAlign=middle;resizable=0;points=[];fontSize=16;" parent="yaB2m7KHn7tUfRYsz8CP-24" vertex="1" connectable="0">
                    <mxGeometry x="0.078" y="-1" relative="1" as="geometry">
                        <mxPoint x="11" y="-83" as="offset"/>
                    </mxGeometry>
                </mxCell>
                <mxCell id="yaB2m7KHn7tUfRYsz8CP-27" value="&#10;Post reponse (game summary)&#10;&#10;" style="endArrow=classic;html=1;fontSize=16;startSize=16;" parent="yaB2m7KHn7tUfRYsz8CP-1" edge="1">
                    <mxGeometry width="50" height="50" relative="1" as="geometry">
                        <mxPoint x="1221" y="221" as="sourcePoint"/>
                        <mxPoint x="642" y="221" as="targetPoint"/>
                    </mxGeometry>
                </mxCell>
                <mxCell id="yaB2m7KHn7tUfRYsz8CP-29" value="" style="endArrow=classic;html=1;fontSize=16;startSize=16;" parent="yaB2m7KHn7tUfRYsz8CP-1" edge="1">
                    <mxGeometry width="50" height="50" relative="1" as="geometry">
                        <mxPoint x="647" y="268" as="sourcePoint"/>
                        <mxPoint x="93" y="268" as="targetPoint"/>
                    </mxGeometry>
                </mxCell>
                <mxCell id="yaB2m7KHn7tUfRYsz8CP-30" value="Display&amp;nbsp; turn component " style="edgeLabel;html=1;align=center;verticalAlign=middle;resizable=0;points=[];fontSize=16;" parent="yaB2m7KHn7tUfRYsz8CP-29" vertex="1" connectable="0">
                    <mxGeometry x="0.1552" y="-1" relative="1" as="geometry">
                        <mxPoint as="offset"/>
                    </mxGeometry>
                </mxCell>
                <mxCell id="yaB2m7KHn7tUfRYsz8CP-31" value="" style="endArrow=classic;html=1;fontSize=16;fontStyle=1;dashed=1;endSize=16;" parent="yaB2m7KHn7tUfRYsz8CP-1" edge="1">
                    <mxGeometry width="50" height="50" relative="1" as="geometry">
                        <mxPoint x="1215" y="647" as="sourcePoint"/>
                        <mxPoint x="644" y="647" as="targetPoint"/>
                    </mxGeometry>
                </mxCell>
                <mxCell id="yaB2m7KHn7tUfRYsz8CP-88" value="If trun &amp;lt; trun choice" style="edgeLabel;html=1;align=center;verticalAlign=middle;resizable=0;points=[];fontSize=16;" parent="yaB2m7KHn7tUfRYsz8CP-31" vertex="1" connectable="0">
                    <mxGeometry x="0.0508" y="1" relative="1" as="geometry">
                        <mxPoint as="offset"/>
                    </mxGeometry>
                </mxCell>
                <mxCell id="yaB2m7KHn7tUfRYsz8CP-33" value="" style="endArrow=classic;html=1;fontSize=16;endSize=16;" parent="yaB2m7KHn7tUfRYsz8CP-1" edge="1">
                    <mxGeometry width="50" height="50" relative="1" as="geometry">
                        <mxPoint x="644" y="350" as="sourcePoint"/>
                        <mxPoint x="1222" y="350" as="targetPoint"/>
                    </mxGeometry>
                </mxCell>
                <mxCell id="yaB2m7KHn7tUfRYsz8CP-34" value="Post{Username, datetimeStart, turnNumbre, Playerchoise}" style="edgeLabel;html=1;align=center;verticalAlign=middle;resizable=0;points=[];fontSize=16;" parent="yaB2m7KHn7tUfRYsz8CP-33" vertex="1" connectable="0">
                    <mxGeometry x="-0.0934" y="1" relative="1" as="geometry">
                        <mxPoint as="offset"/>
                    </mxGeometry>
                </mxCell>
                <mxCell id="yaB2m7KHn7tUfRYsz8CP-35" value="" style="endArrow=classic;html=1;fontSize=16;" parent="yaB2m7KHn7tUfRYsz8CP-1" edge="1">
                    <mxGeometry width="50" height="50" relative="1" as="geometry">
                        <mxPoint x="1221" y="377" as="sourcePoint"/>
                        <mxPoint x="1221" y="421" as="targetPoint"/>
                        <Array as="points">
                            <mxPoint x="1281" y="377"/>
                            <mxPoint x="1281" y="421"/>
                        </Array>
                    </mxGeometry>
                </mxCell>
                <mxCell id="yaB2m7KHn7tUfRYsz8CP-36" value="generate AI choise" style="text;html=1;align=center;verticalAlign=middle;resizable=0;points=[];autosize=1;fontSize=16;" parent="yaB2m7KHn7tUfRYsz8CP-1" vertex="1">
                    <mxGeometry x="1273" y="368" width="143" height="23" as="geometry"/>
                </mxCell>
                <mxCell id="yaB2m7KHn7tUfRYsz8CP-37" value="" style="endArrow=classic;html=1;fontSize=16;endSize=16;" parent="yaB2m7KHn7tUfRYsz8CP-1" edge="1">
                    <mxGeometry width="50" height="50" relative="1" as="geometry">
                        <mxPoint x="1224" y="454" as="sourcePoint"/>
                        <mxPoint x="1663" y="454" as="targetPoint"/>
                    </mxGeometry>
                </mxCell>
                <mxCell id="yaB2m7KHn7tUfRYsz8CP-38" value="Insert Turn" style="edgeLabel;html=1;align=center;verticalAlign=middle;resizable=0;points=[];fontSize=16;" parent="yaB2m7KHn7tUfRYsz8CP-37" vertex="1" connectable="0">
                    <mxGeometry x="0.2301" y="3" relative="1" as="geometry">
                        <mxPoint x="-62" y="2" as="offset"/>
                    </mxGeometry>
                </mxCell>
                <mxCell id="yaB2m7KHn7tUfRYsz8CP-39" value="" style="endArrow=classic;html=1;fontSize=16;dashed=1;endSize=16;" parent="yaB2m7KHn7tUfRYsz8CP-1" edge="1">
                    <mxGeometry width="50" height="50" relative="1" as="geometry">
                        <mxPoint x="1665" y="492" as="sourcePoint"/>
                        <mxPoint x="1221" y="492" as="targetPoint"/>
                    </mxGeometry>
                </mxCell>
                <mxCell id="yaB2m7KHn7tUfRYsz8CP-40" value="send ok status" style="edgeLabel;html=1;align=center;verticalAlign=middle;resizable=0;points=[];fontSize=16;" parent="yaB2m7KHn7tUfRYsz8CP-39" vertex="1" connectable="0">
                    <mxGeometry x="-0.2387" y="5" relative="1" as="geometry">
                        <mxPoint x="-53" y="-1" as="offset"/>
                    </mxGeometry>
                </mxCell>
                <mxCell id="yaB2m7KHn7tUfRYsz8CP-41" value="" style="endArrow=classic;html=1;fontSize=16;startSize=16;endSize=16;" parent="yaB2m7KHn7tUfRYsz8CP-1" edge="1">
                    <mxGeometry width="50" height="50" relative="1" as="geometry">
                        <mxPoint x="1223" y="559" as="sourcePoint"/>
                        <mxPoint x="1666" y="554" as="targetPoint"/>
                    </mxGeometry>
                </mxCell>
                <mxCell id="yaB2m7KHn7tUfRYsz8CP-43" value="Select the turnNumber" style="edgeLabel;html=1;align=center;verticalAlign=middle;resizable=0;points=[];fontSize=16;" parent="yaB2m7KHn7tUfRYsz8CP-41" vertex="1" connectable="0">
                    <mxGeometry x="0.1107" y="1" relative="1" as="geometry">
                        <mxPoint x="-25.97" y="-1.2199999999999998" as="offset"/>
                    </mxGeometry>
                </mxCell>
                <mxCell id="yaB2m7KHn7tUfRYsz8CP-44" value="" style="endArrow=classic;html=1;fontSize=16;dashed=1;endSize=16;" parent="yaB2m7KHn7tUfRYsz8CP-1" edge="1">
                    <mxGeometry width="50" height="50" relative="1" as="geometry">
                        <mxPoint x="1661" y="599" as="sourcePoint"/>
                        <mxPoint x="1215" y="599" as="targetPoint"/>
                    </mxGeometry>
                </mxCell>
                <mxCell id="yaB2m7KHn7tUfRYsz8CP-45" value="return the Actual Trun " style="edgeLabel;html=1;align=center;verticalAlign=middle;resizable=0;points=[];fontSize=16;" parent="yaB2m7KHn7tUfRYsz8CP-44" vertex="1" connectable="0">
                    <mxGeometry x="-0.0448" y="-1" relative="1" as="geometry">
                        <mxPoint as="offset"/>
                    </mxGeometry>
                </mxCell>
                <mxCell id="yaB2m7KHn7tUfRYsz8CP-91" value="" style="endArrow=classic;html=1;fontSize=16;fontStyle=1;dashed=1;endSize=16;" parent="yaB2m7KHn7tUfRYsz8CP-1" edge="1">
                    <mxGeometry width="50" height="50" relative="1" as="geometry">
                        <mxPoint x="645" y="681" as="sourcePoint"/>
                        <mxPoint x="85" y="681" as="targetPoint"/>
                    </mxGeometry>
                </mxCell>
                <mxCell id="yaB2m7KHn7tUfRYsz8CP-92" value="display choice conponant " style="edgeLabel;html=1;align=center;verticalAlign=middle;resizable=0;points=[];fontSize=16;" parent="yaB2m7KHn7tUfRYsz8CP-91" vertex="1" connectable="0">
                    <mxGeometry x="0.0508" y="1" relative="1" as="geometry">
                        <mxPoint as="offset"/>
                    </mxGeometry>
                </mxCell>
                <mxCell id="yaB2m7KHn7tUfRYsz8CP-95" value="" style="rounded=0;whiteSpace=wrap;html=1;shadow=1;strokeWidth=1;fontSize=16;strokeColor=#005700;fontColor=#ffffff;fillColor=#00192B;" parent="yaB2m7KHn7tUfRYsz8CP-1" vertex="1">
                    <mxGeometry x="-53" y="243" width="1760" height="523" as="geometry"/>
                </mxCell>
                <mxCell id="yaB2m7KHn7tUfRYsz8CP-183" value="post reponse(GameResult[ username, AI choise , gamesresult])" style="text;html=1;align=center;verticalAlign=middle;resizable=0;points=[];autosize=1;fontSize=16;" parent="yaB2m7KHn7tUfRYsz8CP-1" vertex="1">
                    <mxGeometry x="693" y="715" width="462" height="23" as="geometry"/>
                </mxCell>
                <mxCell id="yaB2m7KHn7tUfRYsz8CP-184" value="" style="endArrow=classic;html=1;fontSize=16;startSize=14;endSize=17;startArrow=none;startFill=0;dashed=1;" parent="yaB2m7KHn7tUfRYsz8CP-1" edge="1">
                    <mxGeometry width="50" height="50" relative="1" as="geometry">
                        <mxPoint x="1219" y="709" as="sourcePoint"/>
                        <mxPoint x="645" y="715" as="targetPoint"/>
                        <Array as="points">
                            <mxPoint x="992" y="709"/>
                        </Array>
                    </mxGeometry>
                </mxCell>
                <mxCell id="yaB2m7KHn7tUfRYsz8CP-185" value="else" style="edgeLabel;html=1;align=center;verticalAlign=middle;resizable=0;points=[];fontSize=16;" parent="yaB2m7KHn7tUfRYsz8CP-184" vertex="1" connectable="0">
                    <mxGeometry x="0.078" y="-1" relative="1" as="geometry">
                        <mxPoint x="7" y="-14" as="offset"/>
                    </mxGeometry>
                </mxCell>
                <mxCell id="yaB2m7KHn7tUfRYsz8CP-186" value="" style="endArrow=classic;html=1;fontSize=17;endSize=21;" parent="yaB2m7KHn7tUfRYsz8CP-1" edge="1">
                    <mxGeometry relative="1" as="geometry">
                        <mxPoint x="94" y="129" as="sourcePoint"/>
                        <mxPoint x="645" y="129" as="targetPoint"/>
                    </mxGeometry>
                </mxCell>
                <mxCell id="yaB2m7KHn7tUfRYsz8CP-187" value="Enter Name And Select Number{1,3,5}" style="edgeLabel;resizable=0;html=1;align=center;verticalAlign=middle;fontSize=16;" parent="yaB2m7KHn7tUfRYsz8CP-186" connectable="0" vertex="1">
                    <mxGeometry relative="1" as="geometry">
                        <mxPoint x="-21" y="-1" as="offset"/>
                    </mxGeometry>
                </mxCell>
                <mxCell id="yaB2m7KHn7tUfRYsz8CP-188" value="" style="endArrow=classic;html=1;fontSize=16;startSize=16;endSize=16;" parent="yaB2m7KHn7tUfRYsz8CP-1" edge="1">
                    <mxGeometry width="50" height="50" relative="1" as="geometry">
                        <mxPoint x="1223" y="559" as="sourcePoint"/>
                        <mxPoint x="1666" y="554" as="targetPoint"/>
                    </mxGeometry>
                </mxCell>
                <mxCell id="yaB2m7KHn7tUfRYsz8CP-189" value="Select the turnNumber" style="edgeLabel;html=1;align=center;verticalAlign=middle;resizable=0;points=[];fontSize=16;" parent="yaB2m7KHn7tUfRYsz8CP-188" vertex="1" connectable="0">
                    <mxGeometry x="0.1107" y="1" relative="1" as="geometry">
                        <mxPoint x="-25.97" y="-1.2199999999999998" as="offset"/>
                    </mxGeometry>
                </mxCell>
                <mxCell id="yaB2m7KHn7tUfRYsz8CP-190" value="" style="endArrow=classic;html=1;fontSize=16;dashed=1;endSize=16;" parent="yaB2m7KHn7tUfRYsz8CP-1" edge="1">
                    <mxGeometry width="50" height="50" relative="1" as="geometry">
                        <mxPoint x="1661" y="599" as="sourcePoint"/>
                        <mxPoint x="1215" y="599" as="targetPoint"/>
                    </mxGeometry>
                </mxCell>
                <mxCell id="yaB2m7KHn7tUfRYsz8CP-191" value="return the Actual Trun " style="edgeLabel;html=1;align=center;verticalAlign=middle;resizable=0;points=[];fontSize=16;" parent="yaB2m7KHn7tUfRYsz8CP-190" vertex="1" connectable="0">
                    <mxGeometry x="-0.0448" y="-1" relative="1" as="geometry">
                        <mxPoint as="offset"/>
                    </mxGeometry>
                </mxCell>
                <mxCell id="yaB2m7KHn7tUfRYsz8CP-192" value="" style="endArrow=classic;html=1;fontSize=17;endSize=21;" parent="yaB2m7KHn7tUfRYsz8CP-1" edge="1">
                    <mxGeometry relative="1" as="geometry">
                        <mxPoint x="95" y="799" as="sourcePoint"/>
                        <mxPoint x="646" y="799" as="targetPoint"/>
                    </mxGeometry>
                </mxCell>
                <mxCell id="yaB2m7KHn7tUfRYsz8CP-193" value="Ask lerderbord view" style="edgeLabel;resizable=0;html=1;align=center;verticalAlign=middle;fontSize=16;" parent="yaB2m7KHn7tUfRYsz8CP-192" connectable="0" vertex="1">
                    <mxGeometry relative="1" as="geometry">
                        <mxPoint x="-21" y="-1" as="offset"/>
                    </mxGeometry>
                </mxCell>
                <mxCell id="yaB2m7KHn7tUfRYsz8CP-194" value="" style="endArrow=classic;html=1;fontSize=17;endSize=21;" parent="yaB2m7KHn7tUfRYsz8CP-1" edge="1">
                    <mxGeometry relative="1" as="geometry">
                        <mxPoint x="1222" y="860" as="sourcePoint"/>
                        <mxPoint x="1665" y="860" as="targetPoint"/>
                    </mxGeometry>
                </mxCell>
                <mxCell id="yaB2m7KHn7tUfRYsz8CP-195" value="generate view leaderbord" style="edgeLabel;resizable=0;html=1;align=center;verticalAlign=middle;fontSize=16;" parent="yaB2m7KHn7tUfRYsz8CP-194" connectable="0" vertex="1">
                    <mxGeometry relative="1" as="geometry">
                        <mxPoint x="-21" y="-1" as="offset"/>
                    </mxGeometry>
                </mxCell>
                <mxCell id="yaB2m7KHn7tUfRYsz8CP-196" value="" style="endArrow=classic;html=1;fontSize=16;dashed=1;endSize=16;" parent="yaB2m7KHn7tUfRYsz8CP-1" edge="1">
                    <mxGeometry width="50" height="50" relative="1" as="geometry">
                        <mxPoint x="1665" y="693" as="sourcePoint"/>
                        <mxPoint x="1219" y="693" as="targetPoint"/>
                    </mxGeometry>
                </mxCell>
                <mxCell id="yaB2m7KHn7tUfRYsz8CP-197" value="return all game data " style="edgeLabel;html=1;align=center;verticalAlign=middle;resizable=0;points=[];fontSize=16;" parent="yaB2m7KHn7tUfRYsz8CP-196" vertex="1" connectable="0">
                    <mxGeometry x="-0.0448" y="-1" relative="1" as="geometry">
                        <mxPoint as="offset"/>
                    </mxGeometry>
                </mxCell>
                <mxCell id="yaB2m7KHn7tUfRYsz8CP-198" value="" style="endArrow=classic;html=1;fontSize=16;fontStyle=1;dashed=1;endSize=16;" parent="yaB2m7KHn7tUfRYsz8CP-1" edge="1">
                    <mxGeometry width="50" height="50" relative="1" as="geometry">
                        <mxPoint x="1215" y="647" as="sourcePoint"/>
                        <mxPoint x="644" y="647" as="targetPoint"/>
                    </mxGeometry>
                </mxCell>
                <mxCell id="yaB2m7KHn7tUfRYsz8CP-199" value="If actual trun &amp;lt; trun choice" style="edgeLabel;html=1;align=center;verticalAlign=middle;resizable=0;points=[];fontSize=16;" parent="yaB2m7KHn7tUfRYsz8CP-198" vertex="1" connectable="0">
                    <mxGeometry x="0.0508" y="1" relative="1" as="geometry">
                        <mxPoint as="offset"/>
                    </mxGeometry>
                </mxCell>
                <mxCell id="yaB2m7KHn7tUfRYsz8CP-200" value="" style="endArrow=classic;html=1;fontSize=17;endSize=21;" parent="yaB2m7KHn7tUfRYsz8CP-1" edge="1">
                    <mxGeometry relative="1" as="geometry">
                        <mxPoint x="1228" y="901" as="sourcePoint"/>
                        <mxPoint x="1671" y="901" as="targetPoint"/>
                    </mxGeometry>
                </mxCell>
                <mxCell id="yaB2m7KHn7tUfRYsz8CP-202" value="Select top 3 WinRatio from leaderbordView" style="edgeLabel;html=1;align=center;verticalAlign=middle;resizable=0;points=[];fontSize=16;" parent="yaB2m7KHn7tUfRYsz8CP-200" vertex="1" connectable="0">
                    <mxGeometry x="-0.1874" y="1" relative="1" as="geometry">
                        <mxPoint as="offset"/>
                    </mxGeometry>
                </mxCell>
                <mxCell id="yaB2m7KHn7tUfRYsz8CP-204" value="" style="endArrow=classic;html=1;fontSize=16;startSize=14;endSize=17;startArrow=none;startFill=0;dashed=1;" parent="yaB2m7KHn7tUfRYsz8CP-1" edge="1">
                    <mxGeometry width="50" height="50" relative="1" as="geometry">
                        <mxPoint x="642" y="728" as="sourcePoint"/>
                        <mxPoint x="82" y="728" as="targetPoint"/>
                        <Array as="points">
                            <mxPoint x="360" y="728"/>
                        </Array>
                    </mxGeometry>
                </mxCell>
                <mxCell id="yaB2m7KHn7tUfRYsz8CP-205" value="display game summary" style="edgeLabel;html=1;align=center;verticalAlign=middle;resizable=0;points=[];fontSize=16;" parent="yaB2m7KHn7tUfRYsz8CP-204" vertex="1" connectable="0">
                    <mxGeometry x="0.078" y="-1" relative="1" as="geometry">
                        <mxPoint x="7" y="-14" as="offset"/>
                    </mxGeometry>
                </mxCell>
                <mxCell id="yaB2m7KHn7tUfRYsz8CP-206" value="" style="endArrow=classic;html=1;fontSize=16;startSize=14;endSize=17;startArrow=none;startFill=0;dashed=1;" parent="yaB2m7KHn7tUfRYsz8CP-1" edge="1">
                    <mxGeometry width="50" height="50" relative="1" as="geometry">
                        <mxPoint x="642" y="728" as="sourcePoint"/>
                        <mxPoint x="82" y="728" as="targetPoint"/>
                        <Array as="points">
                            <mxPoint x="360" y="728"/>
                        </Array>
                    </mxGeometry>
                </mxCell>
                <mxCell id="yaB2m7KHn7tUfRYsz8CP-207" value="display game summary" style="edgeLabel;html=1;align=center;verticalAlign=middle;resizable=0;points=[];fontSize=16;" parent="yaB2m7KHn7tUfRYsz8CP-206" vertex="1" connectable="0">
                    <mxGeometry x="0.078" y="-1" relative="1" as="geometry">
                        <mxPoint x="7" y="-14" as="offset"/>
                    </mxGeometry>
                </mxCell>
                <mxCell id="yaB2m7KHn7tUfRYsz8CP-246" value="Trun" style="swimlane;fontStyle=0;childLayout=stackLayout;horizontal=1;startSize=26;horizontalStack=0;resizeParent=1;resizeParentMax=0;resizeLast=0;collapsible=1;marginBottom=0;align=center;fontSize=14;shadow=1;strokeColor=#000099;strokeWidth=1;fillColor=#000F19;" parent="yaB2m7KHn7tUfRYsz8CP-1" vertex="1">
                    <mxGeometry x="1875" y="760" width="160" height="206" as="geometry"/>
                </mxCell>
                <mxCell id="yaB2m7KHn7tUfRYsz8CP-247" value="username" style="text;strokeColor=none;fillColor=none;spacingLeft=4;spacingRight=4;overflow=hidden;rotatable=0;points=[[0,0.5],[1,0.5]];portConstraint=eastwest;fontSize=12;fontStyle=4" parent="yaB2m7KHn7tUfRYsz8CP-246" vertex="1">
                    <mxGeometry y="26" width="160" height="30" as="geometry"/>
                </mxCell>
                <mxCell id="yaB2m7KHn7tUfRYsz8CP-248" value="DateStareted" style="text;strokeColor=none;fillColor=none;spacingLeft=4;spacingRight=4;overflow=hidden;rotatable=0;points=[[0,0.5],[1,0.5]];portConstraint=eastwest;fontSize=12;fontStyle=4" parent="yaB2m7KHn7tUfRYsz8CP-246" vertex="1">
                    <mxGeometry y="56" width="160" height="30" as="geometry"/>
                </mxCell>
                <mxCell id="yaB2m7KHn7tUfRYsz8CP-249" value="TurnNumbre" style="text;strokeColor=none;fillColor=none;spacingLeft=4;spacingRight=4;overflow=hidden;rotatable=0;points=[[0,0.5],[1,0.5]];portConstraint=eastwest;fontSize=12;fontStyle=4" parent="yaB2m7KHn7tUfRYsz8CP-246" vertex="1">
                    <mxGeometry y="86" width="160" height="30" as="geometry"/>
                </mxCell>
                <mxCell id="yaB2m7KHn7tUfRYsz8CP-262" value="Playerchoise" style="text;strokeColor=none;fillColor=none;spacingLeft=4;spacingRight=4;overflow=hidden;rotatable=0;points=[[0,0.5],[1,0.5]];portConstraint=eastwest;fontSize=12;" parent="yaB2m7KHn7tUfRYsz8CP-246" vertex="1">
                    <mxGeometry y="116" width="160" height="30" as="geometry"/>
                </mxCell>
                <mxCell id="yaB2m7KHn7tUfRYsz8CP-263" value="AiChoise" style="text;strokeColor=none;fillColor=none;spacingLeft=4;spacingRight=4;overflow=hidden;rotatable=0;points=[[0,0.5],[1,0.5]];portConstraint=eastwest;fontSize=12;" parent="yaB2m7KHn7tUfRYsz8CP-246" vertex="1">
                    <mxGeometry y="146" width="160" height="30" as="geometry"/>
                </mxCell>
                <mxCell id="yaB2m7KHn7tUfRYsz8CP-264" value="Result" style="text;strokeColor=none;fillColor=none;spacingLeft=4;spacingRight=4;overflow=hidden;rotatable=0;points=[[0,0.5],[1,0.5]];portConstraint=eastwest;fontSize=12;" parent="yaB2m7KHn7tUfRYsz8CP-246" vertex="1">
                    <mxGeometry y="176" width="160" height="30" as="geometry"/>
                </mxCell>
                <mxCell id="yaB2m7KHn7tUfRYsz8CP-267" style="edgeStyle=none;rounded=0;orthogonalLoop=1;jettySize=auto;html=1;dashed=1;startArrow=ERmandOne;startFill=0;startSize=16;endArrow=ERoneToMany;endFill=0;endSize=16;fontSize=16;" parent="yaB2m7KHn7tUfRYsz8CP-1" source="yaB2m7KHn7tUfRYsz8CP-252" edge="1">
                    <mxGeometry relative="1" as="geometry">
                        <mxPoint x="1945" y="758" as="targetPoint"/>
                    </mxGeometry>
                </mxCell>
                <mxCell id="yaB2m7KHn7tUfRYsz8CP-268" value="&lt;u&gt;HAS&lt;/u&gt;" style="edgeLabel;html=1;align=center;verticalAlign=middle;resizable=0;points=[];fontSize=16;" parent="yaB2m7KHn7tUfRYsz8CP-267" vertex="1" connectable="0">
                    <mxGeometry x="-0.2771" y="2" relative="1" as="geometry">
                        <mxPoint as="offset"/>
                    </mxGeometry>
                </mxCell>
                <mxCell id="yaB2m7KHn7tUfRYsz8CP-252" value="Game" style="swimlane;fontStyle=0;childLayout=stackLayout;horizontal=1;startSize=26;horizontalStack=0;resizeParent=1;resizeParentMax=0;resizeLast=0;collapsible=1;marginBottom=0;align=center;fontSize=14;shadow=1;strokeColor=#000099;strokeWidth=1;fillColor=#000F19;" parent="yaB2m7KHn7tUfRYsz8CP-1" vertex="1">
                    <mxGeometry x="1859" y="421" width="160" height="146" as="geometry"/>
                </mxCell>
                <mxCell id="yaB2m7KHn7tUfRYsz8CP-253" value="UserName" style="text;strokeColor=none;fillColor=none;spacingLeft=4;spacingRight=4;overflow=hidden;rotatable=0;points=[[0,0.5],[1,0.5]];portConstraint=eastwest;fontSize=12;fontStyle=4" parent="yaB2m7KHn7tUfRYsz8CP-252" vertex="1">
                    <mxGeometry y="26" width="160" height="30" as="geometry"/>
                </mxCell>
                <mxCell id="yaB2m7KHn7tUfRYsz8CP-254" value="DateTimeStart" style="text;strokeColor=none;fillColor=none;spacingLeft=4;spacingRight=4;overflow=hidden;rotatable=0;points=[[0,0.5],[1,0.5]];portConstraint=eastwest;fontSize=12;fontStyle=4" parent="yaB2m7KHn7tUfRYsz8CP-252" vertex="1">
                    <mxGeometry y="56" width="160" height="30" as="geometry"/>
                </mxCell>
                <mxCell id="yaB2m7KHn7tUfRYsz8CP-260" value="DateTimeFinish" style="text;strokeColor=none;fillColor=none;spacingLeft=4;spacingRight=4;overflow=hidden;rotatable=0;points=[[0,0.5],[1,0.5]];portConstraint=eastwest;fontSize=12;" parent="yaB2m7KHn7tUfRYsz8CP-252" vertex="1">
                    <mxGeometry y="86" width="160" height="30" as="geometry"/>
                </mxCell>
                <mxCell id="yaB2m7KHn7tUfRYsz8CP-261" value="NumOfTrun" style="text;strokeColor=none;fillColor=none;spacingLeft=4;spacingRight=4;overflow=hidden;rotatable=0;points=[[0,0.5],[1,0.5]];portConstraint=eastwest;fontSize=12;" parent="yaB2m7KHn7tUfRYsz8CP-252" vertex="1">
                    <mxGeometry y="116" width="160" height="30" as="geometry"/>
                </mxCell>
                <mxCell id="yaB2m7KHn7tUfRYsz8CP-265" style="edgeStyle=none;rounded=0;orthogonalLoop=1;jettySize=auto;html=1;entryX=0.5;entryY=0;entryDx=0;entryDy=0;dashed=1;startArrow=ERmandOne;startFill=0;startSize=16;endArrow=ERoneToMany;endFill=0;endSize=16;fontSize=16;" parent="yaB2m7KHn7tUfRYsz8CP-1" source="yaB2m7KHn7tUfRYsz8CP-256" target="yaB2m7KHn7tUfRYsz8CP-252" edge="1">
                    <mxGeometry relative="1" as="geometry"/>
                </mxCell>
                <mxCell id="yaB2m7KHn7tUfRYsz8CP-266" value="&lt;u&gt;Has&lt;/u&gt;" style="edgeLabel;html=1;align=center;verticalAlign=middle;resizable=0;points=[];fontSize=16;" parent="yaB2m7KHn7tUfRYsz8CP-265" vertex="1" connectable="0">
                    <mxGeometry x="-0.2093" y="-3" relative="1" as="geometry">
                        <mxPoint as="offset"/>
                    </mxGeometry>
                </mxCell>
                <mxCell id="yaB2m7KHn7tUfRYsz8CP-256" value="Player" style="swimlane;fontStyle=0;childLayout=stackLayout;horizontal=1;startSize=26;horizontalStack=0;resizeParent=1;resizeParentMax=0;resizeLast=0;collapsible=1;marginBottom=0;align=center;fontSize=14;shadow=1;strokeColor=#000099;strokeWidth=1;fillColor=#000F19;" parent="yaB2m7KHn7tUfRYsz8CP-1" vertex="1">
                    <mxGeometry x="1856" y="183" width="160" height="56" as="geometry"/>
                </mxCell>
                <mxCell id="yaB2m7KHn7tUfRYsz8CP-257" value="UserName" style="text;strokeColor=none;fillColor=none;spacingLeft=4;spacingRight=4;overflow=hidden;rotatable=0;points=[[0,0.5],[1,0.5]];portConstraint=eastwest;fontSize=12;fontStyle=4" parent="yaB2m7KHn7tUfRYsz8CP-256" vertex="1">
                    <mxGeometry y="26" width="160" height="30" as="geometry"/>
                </mxCell>
                <mxCell id="yaB2m7KHn7tUfRYsz8CP-96" value="1vue" style="" parent="yaB2m7KHn7tUfRYsz8CP-0"/>
                <mxCell id="yaB2m7KHn7tUfRYsz8CP-98" value="DataBase" style="text;html=1;align=center;verticalAlign=middle;resizable=0;points=[];autosize=1;fontSize=17;" parent="yaB2m7KHn7tUfRYsz8CP-96" vertex="1">
                    <mxGeometry x="1625" y="33" width="85" height="24" as="geometry"/>
                </mxCell>
                <mxCell id="yaB2m7KHn7tUfRYsz8CP-99" style="edgeStyle=none;rounded=0;orthogonalLoop=1;jettySize=auto;html=1;startArrow=none;startFill=0;startSize=21;endArrow=classic;endFill=0;endSize=23;fontSize=17;" parent="yaB2m7KHn7tUfRYsz8CP-96" source="yaB2m7KHn7tUfRYsz8CP-100" edge="1">
                    <mxGeometry relative="1" as="geometry">
                        <mxPoint x="1222" y="1127" as="targetPoint"/>
                    </mxGeometry>
                </mxCell>
                <mxCell id="yaB2m7KHn7tUfRYsz8CP-100" value="API" style="rounded=0;whiteSpace=wrap;html=1;shadow=1;strokeWidth=1;fontSize=17;fillColor=none;" parent="yaB2m7KHn7tUfRYsz8CP-96" vertex="1">
                    <mxGeometry x="1161" y="5" width="120" height="60" as="geometry"/>
                </mxCell>
                <mxCell id="yaB2m7KHn7tUfRYsz8CP-101" style="edgeStyle=none;rounded=0;orthogonalLoop=1;jettySize=auto;html=1;startArrow=none;startFill=0;startSize=21;endArrow=classic;endFill=0;endSize=23;fontSize=17;" parent="yaB2m7KHn7tUfRYsz8CP-96" source="yaB2m7KHn7tUfRYsz8CP-102" edge="1">
                    <mxGeometry relative="1" as="geometry">
                        <mxPoint x="1664" y="1131" as="targetPoint"/>
                    </mxGeometry>
                </mxCell>
                <mxCell id="yaB2m7KHn7tUfRYsz8CP-102" value="" style="shape=cylinder3;whiteSpace=wrap;html=1;boundedLbl=1;backgroundOutline=1;size=15;shadow=1;strokeWidth=1;fillColor=none;fontSize=17;" parent="yaB2m7KHn7tUfRYsz8CP-96" vertex="1">
                    <mxGeometry x="1634" y="1" width="60" height="80" as="geometry"/>
                </mxCell>
                <mxCell id="yaB2m7KHn7tUfRYsz8CP-103" style="edgeStyle=none;rounded=0;orthogonalLoop=1;jettySize=auto;html=1;startArrow=none;startFill=0;startSize=21;endArrow=classic;endFill=0;endSize=23;fontSize=17;" parent="yaB2m7KHn7tUfRYsz8CP-96" source="yaB2m7KHn7tUfRYsz8CP-104" edge="1">
                    <mxGeometry relative="1" as="geometry">
                        <mxPoint x="644" y="1118" as="targetPoint"/>
                    </mxGeometry>
                </mxCell>
                <mxCell id="yaB2m7KHn7tUfRYsz8CP-104" value="Front End / Angular" style="rounded=0;whiteSpace=wrap;html=1;shadow=1;strokeWidth=1;fontSize=17;fillColor=none;" parent="yaB2m7KHn7tUfRYsz8CP-96" vertex="1">
                    <mxGeometry x="584" y="7" width="120" height="60" as="geometry"/>
                </mxCell>
                <mxCell id="yaB2m7KHn7tUfRYsz8CP-105" style="edgeStyle=none;rounded=0;orthogonalLoop=1;jettySize=auto;html=1;startArrow=none;startFill=0;startSize=21;endArrow=classic;endFill=0;endSize=23;fontSize=17;" parent="yaB2m7KHn7tUfRYsz8CP-96" source="yaB2m7KHn7tUfRYsz8CP-106" edge="1">
                    <mxGeometry relative="1" as="geometry">
                        <mxPoint x="88" y="1131" as="targetPoint"/>
                    </mxGeometry>
                </mxCell>
                <mxCell id="yaB2m7KHn7tUfRYsz8CP-106" value="Actor" style="shape=umlActor;verticalLabelPosition=bottom;verticalAlign=top;html=1;outlineConnect=0;shadow=1;strokeWidth=1;fillColor=none;fontSize=17;" parent="yaB2m7KHn7tUfRYsz8CP-96" vertex="1">
                    <mxGeometry x="79" y="7" width="30" height="60" as="geometry"/>
                </mxCell>
                <mxCell id="yaB2m7KHn7tUfRYsz8CP-107" value="" style="endArrow=classic;html=1;fontSize=17;endSize=21;" parent="yaB2m7KHn7tUfRYsz8CP-96" edge="1">
                    <mxGeometry relative="1" as="geometry">
                        <mxPoint x="647" y="841" as="sourcePoint"/>
                        <mxPoint x="1220" y="841" as="targetPoint"/>
                    </mxGeometry>
                </mxCell>
                <mxCell id="yaB2m7KHn7tUfRYsz8CP-108" value="GET { Username, WinRatio, NumbrePlay, last5game&amp;nbsp; }" style="edgeLabel;resizable=0;html=1;align=center;verticalAlign=middle;fontSize=16;" parent="yaB2m7KHn7tUfRYsz8CP-107" connectable="0" vertex="1">
                    <mxGeometry relative="1" as="geometry">
                        <mxPoint x="-21" y="-1" as="offset"/>
                    </mxGeometry>
                </mxCell>
                <mxCell id="yaB2m7KHn7tUfRYsz8CP-109" value="" style="endArrow=classic;html=1;fontSize=17;endSize=21;" parent="yaB2m7KHn7tUfRYsz8CP-96" edge="1">
                    <mxGeometry relative="1" as="geometry">
                        <mxPoint x="648" y="140" as="sourcePoint"/>
                        <mxPoint x="1224" y="140" as="targetPoint"/>
                        <Array as="points">
                            <mxPoint x="943" y="140"/>
                        </Array>
                    </mxGeometry>
                </mxCell>
                <mxCell id="yaB2m7KHn7tUfRYsz8CP-110" value="Post{username , numturns}" style="edgeLabel;resizable=0;html=1;align=center;verticalAlign=middle;fontSize=16;" parent="yaB2m7KHn7tUfRYsz8CP-109" connectable="0" vertex="1">
                    <mxGeometry relative="1" as="geometry"/>
                </mxCell>
                <mxCell id="yaB2m7KHn7tUfRYsz8CP-114" value="" style="endArrow=classic;html=1;fontSize=16;startSize=14;endSize=17;startArrow=none;startFill=0;dashed=1;" parent="yaB2m7KHn7tUfRYsz8CP-96" edge="1">
                    <mxGeometry width="50" height="50" relative="1" as="geometry">
                        <mxPoint x="645" y="1035" as="sourcePoint"/>
                        <mxPoint x="85" y="1035" as="targetPoint"/>
                        <Array as="points">
                            <mxPoint x="363" y="1035"/>
                        </Array>
                    </mxGeometry>
                </mxCell>
                <mxCell id="yaB2m7KHn7tUfRYsz8CP-115" value="display leaderbord compo" style="edgeLabel;html=1;align=center;verticalAlign=middle;resizable=0;points=[];fontSize=16;" parent="yaB2m7KHn7tUfRYsz8CP-114" vertex="1" connectable="0">
                    <mxGeometry x="0.078" y="-1" relative="1" as="geometry">
                        <mxPoint x="7" y="-14" as="offset"/>
                    </mxGeometry>
                </mxCell>
                <mxCell id="yaB2m7KHn7tUfRYsz8CP-118" value="" style="endArrow=classic;html=1;fontSize=16;startSize=16;" parent="yaB2m7KHn7tUfRYsz8CP-96" edge="1">
                    <mxGeometry width="50" height="50" relative="1" as="geometry">
                        <mxPoint x="647" y="268" as="sourcePoint"/>
                        <mxPoint x="93" y="268" as="targetPoint"/>
                    </mxGeometry>
                </mxCell>
                <mxCell id="yaB2m7KHn7tUfRYsz8CP-119" value="Display&amp;nbsp; turn component " style="edgeLabel;html=1;align=center;verticalAlign=middle;resizable=0;points=[];fontSize=16;" parent="yaB2m7KHn7tUfRYsz8CP-118" vertex="1" connectable="0">
                    <mxGeometry x="0.1552" y="-1" relative="1" as="geometry">
                        <mxPoint as="offset"/>
                    </mxGeometry>
                </mxCell>
                <mxCell id="yaB2m7KHn7tUfRYsz8CP-120" value="" style="endArrow=classic;html=1;fontSize=16;fontStyle=1;dashed=1;endSize=16;" parent="yaB2m7KHn7tUfRYsz8CP-96" edge="1">
                    <mxGeometry width="50" height="50" relative="1" as="geometry">
                        <mxPoint x="1214" y="990" as="sourcePoint"/>
                        <mxPoint x="643" y="990" as="targetPoint"/>
                    </mxGeometry>
                </mxCell>
                <mxCell id="yaB2m7KHn7tUfRYsz8CP-121" value="Responce Get{ playerInfo[ Username, WinRatio, NumbrePlay, last5game&amp;nbsp; ]}" style="edgeLabel;html=1;align=center;verticalAlign=middle;resizable=0;points=[];fontSize=16;" parent="yaB2m7KHn7tUfRYsz8CP-120" vertex="1" connectable="0">
                    <mxGeometry x="0.0508" y="1" relative="1" as="geometry">
                        <mxPoint x="32" y="2" as="offset"/>
                    </mxGeometry>
                </mxCell>
                <mxCell id="yaB2m7KHn7tUfRYsz8CP-122" value="" style="endArrow=classic;html=1;fontSize=16;endSize=16;" parent="yaB2m7KHn7tUfRYsz8CP-96" edge="1">
                    <mxGeometry width="50" height="50" relative="1" as="geometry">
                        <mxPoint x="644" y="350" as="sourcePoint"/>
                        <mxPoint x="1222" y="350" as="targetPoint"/>
                    </mxGeometry>
                </mxCell>
                <mxCell id="yaB2m7KHn7tUfRYsz8CP-123" value="Post{Username, datetimeStart, turnNumbre, Playerchoise}" style="edgeLabel;html=1;align=center;verticalAlign=middle;resizable=0;points=[];fontSize=16;" parent="yaB2m7KHn7tUfRYsz8CP-122" vertex="1" connectable="0">
                    <mxGeometry x="-0.0934" y="1" relative="1" as="geometry">
                        <mxPoint as="offset"/>
                    </mxGeometry>
                </mxCell>
                <mxCell id="yaB2m7KHn7tUfRYsz8CP-124" value="" style="endArrow=classic;html=1;fontSize=16;" parent="yaB2m7KHn7tUfRYsz8CP-96" edge="1">
                    <mxGeometry width="50" height="50" relative="1" as="geometry">
                        <mxPoint x="1221" y="377" as="sourcePoint"/>
                        <mxPoint x="1221" y="421" as="targetPoint"/>
                        <Array as="points">
                            <mxPoint x="1281" y="377"/>
                            <mxPoint x="1281" y="421"/>
                        </Array>
                    </mxGeometry>
                </mxCell>
                <mxCell id="yaB2m7KHn7tUfRYsz8CP-125" value="generate AI choise" style="text;html=1;align=center;verticalAlign=middle;resizable=0;points=[];autosize=1;fontSize=16;" parent="yaB2m7KHn7tUfRYsz8CP-96" vertex="1">
                    <mxGeometry x="1273" y="368" width="143" height="23" as="geometry"/>
                </mxCell>
                <mxCell id="yaB2m7KHn7tUfRYsz8CP-126" value="" style="endArrow=classic;html=1;fontSize=16;endSize=16;" parent="yaB2m7KHn7tUfRYsz8CP-96" edge="1">
                    <mxGeometry width="50" height="50" relative="1" as="geometry">
                        <mxPoint x="1224" y="454" as="sourcePoint"/>
                        <mxPoint x="1663" y="454" as="targetPoint"/>
                    </mxGeometry>
                </mxCell>
                <mxCell id="yaB2m7KHn7tUfRYsz8CP-127" value="Insert Turn" style="edgeLabel;html=1;align=center;verticalAlign=middle;resizable=0;points=[];fontSize=16;" parent="yaB2m7KHn7tUfRYsz8CP-126" vertex="1" connectable="0">
                    <mxGeometry x="0.2301" y="3" relative="1" as="geometry">
                        <mxPoint x="-62" y="2" as="offset"/>
                    </mxGeometry>
                </mxCell>
                <mxCell id="yaB2m7KHn7tUfRYsz8CP-128" value="" style="endArrow=classic;html=1;fontSize=16;dashed=1;endSize=16;" parent="yaB2m7KHn7tUfRYsz8CP-96" edge="1">
                    <mxGeometry width="50" height="50" relative="1" as="geometry">
                        <mxPoint x="1665" y="492" as="sourcePoint"/>
                        <mxPoint x="1221" y="492" as="targetPoint"/>
                    </mxGeometry>
                </mxCell>
                <mxCell id="yaB2m7KHn7tUfRYsz8CP-129" value="send ok status" style="edgeLabel;html=1;align=center;verticalAlign=middle;resizable=0;points=[];fontSize=16;" parent="yaB2m7KHn7tUfRYsz8CP-128" vertex="1" connectable="0">
                    <mxGeometry x="-0.2387" y="5" relative="1" as="geometry">
                        <mxPoint x="-53" y="-1" as="offset"/>
                    </mxGeometry>
                </mxCell>
                <mxCell id="yaB2m7KHn7tUfRYsz8CP-130" value="" style="endArrow=classic;html=1;fontSize=16;startSize=16;endSize=16;" parent="yaB2m7KHn7tUfRYsz8CP-96" edge="1">
                    <mxGeometry width="50" height="50" relative="1" as="geometry">
                        <mxPoint x="1220" y="671" as="sourcePoint"/>
                        <mxPoint x="1663" y="666" as="targetPoint"/>
                    </mxGeometry>
                </mxCell>
                <mxCell id="yaB2m7KHn7tUfRYsz8CP-131" value="Select the All Data FOR THE GAME" style="edgeLabel;html=1;align=center;verticalAlign=middle;resizable=0;points=[];fontSize=16;" parent="yaB2m7KHn7tUfRYsz8CP-130" vertex="1" connectable="0">
                    <mxGeometry x="0.1107" y="1" relative="1" as="geometry">
                        <mxPoint x="-25.97" y="-1.2199999999999998" as="offset"/>
                    </mxGeometry>
                </mxCell>
                <mxCell id="yaB2m7KHn7tUfRYsz8CP-132" value="" style="endArrow=classic;html=1;fontSize=16;dashed=1;endSize=16;" parent="yaB2m7KHn7tUfRYsz8CP-96" edge="1">
                    <mxGeometry width="50" height="50" relative="1" as="geometry">
                        <mxPoint x="1657" y="924" as="sourcePoint"/>
                        <mxPoint x="1225" y="924" as="targetPoint"/>
                    </mxGeometry>
                </mxCell>
                <mxCell id="yaB2m7KHn7tUfRYsz8CP-203" value="Return top 3 player data" style="edgeLabel;html=1;align=center;verticalAlign=middle;resizable=0;points=[];fontSize=16;" parent="yaB2m7KHn7tUfRYsz8CP-132" vertex="1" connectable="0">
                    <mxGeometry x="-0.0556" y="3" relative="1" as="geometry">
                        <mxPoint as="offset"/>
                    </mxGeometry>
                </mxCell>
                <mxCell id="yaB2m7KHn7tUfRYsz8CP-134" value="" style="endArrow=classic;html=1;fontSize=16;fontStyle=1;dashed=1;endSize=16;" parent="yaB2m7KHn7tUfRYsz8CP-96" edge="1">
                    <mxGeometry width="50" height="50" relative="1" as="geometry">
                        <mxPoint x="646" y="669" as="sourcePoint"/>
                        <mxPoint x="86" y="669" as="targetPoint"/>
                    </mxGeometry>
                </mxCell>
                <mxCell id="yaB2m7KHn7tUfRYsz8CP-135" value="display choice conponant " style="edgeLabel;html=1;align=center;verticalAlign=middle;resizable=0;points=[];fontSize=16;" parent="yaB2m7KHn7tUfRYsz8CP-134" vertex="1" connectable="0">
                    <mxGeometry x="0.0508" y="1" relative="1" as="geometry">
                        <mxPoint as="offset"/>
                    </mxGeometry>
                </mxCell>
                <mxCell id="yaB2m7KHn7tUfRYsz8CP-136" value="" style="endArrow=classic;html=1;dashed=1;fontSize=16;" parent="yaB2m7KHn7tUfRYsz8CP-96" edge="1">
                    <mxGeometry width="50" height="50" relative="1" as="geometry">
                        <mxPoint x="91" y="318" as="sourcePoint"/>
                        <mxPoint x="647" y="318" as="targetPoint"/>
                    </mxGeometry>
                </mxCell>
                <mxCell id="yaB2m7KHn7tUfRYsz8CP-137" value="Pick choise" style="edgeLabel;html=1;align=center;verticalAlign=middle;resizable=0;points=[];fontSize=16;" parent="yaB2m7KHn7tUfRYsz8CP-136" vertex="1" connectable="0">
                    <mxGeometry x="0.1655" y="-1" relative="1" as="geometry">
                        <mxPoint x="-58" as="offset"/>
                    </mxGeometry>
                </mxCell>
                <mxCell id="yaB2m7KHn7tUfRYsz8CP-139" value="&lt;div&gt;Loop&lt;/div&gt;&lt;div&gt;&lt;br&gt;&lt;/div&gt;" style="text;html=1;align=center;verticalAlign=middle;resizable=0;points=[];autosize=1;fontSize=16;" parent="yaB2m7KHn7tUfRYsz8CP-96" vertex="1">
                    <mxGeometry x="-58" y="260" width="46" height="42" as="geometry"/>
                </mxCell>
            </root>
        </mxGraphModel>
    </diagram>
</mxfile>